<?xml version="1.0" encoding="utf-8"?>
<!-- Generator: Adobe Illustrator 25.4.1, SVG Export Plug-In . SVG Version: 6.00 Build 0)  -->
<svg version="1.1" id="Layer_1" xmlns="http://www.w3.org/2000/svg" xmlns:xlink="http://www.w3.org/1999/xlink" x="0px" y="0px"
	 viewBox="0 0 73.31 66.04" style="enable-background:new 0 0 73.31 66.04;" xml:space="preserve">
<style type="text/css">
	.st0{fill:none;stroke:#F5F5F5;stroke-width:0.297;}
	.st1{clip-path:url(#SVGID_00000065785170848299494390000018057672974806750853_);fill:#384EA0;}
	.st2{clip-path:url(#SVGID_00000065785170848299494390000018057672974806750853_);fill:#F5F5F5;}
	.st3{clip-path:url(#SVGID_00000065785170848299494390000018057672974806750853_);fill:#F5F5F5;stroke:#384EA0;stroke-width:2;}
	.st4{clip-path:url(#SVGID_00000155141249490335423910000001767350010845426101_);fill:#384EA0;}
	.st5{fill:#F5F5F5;stroke:#384EA0;stroke-width:2.5;stroke-miterlimit:10;}
	.st6{clip-path:url(#SVGID_00000011013545667732498980000016696929355200406940_);fill:none;stroke:#F5F5F5;stroke-width:2.638;}
	.st7{fill:#F5F5F5;stroke:#384EA0;stroke-width:2.5;}
	.st8{fill:none;stroke:#F5F5F5;stroke-width:3.298;}
	.st9{clip-path:url(#SVGID_00000042704226940948576460000016650569283930758787_);fill:none;stroke:#F5F5F5;stroke-width:2.968;}
	.st10{fill:#384FA0;}
	.st11{clip-path:url(#SVGID_00000170280225411178113490000017451085669091234190_);fill:#F5F5F5;stroke:#384EA0;stroke-width:2.5;}
	.st12{clip-path:url(#SVGID_00000059999796033942105320000013671800523747742883_);fill:#384EA0;}
	.st13{clip-path:url(#SVGID_00000059999796033942105320000013671800523747742883_);fill:none;stroke:#F5F5F5;stroke-width:0.297;}
	.st14{clip-path:url(#SVGID_00000059999796033942105320000013671800523747742883_);fill:none;stroke:#F5F5F5;stroke-width:1.839;}
	.st15{clip-path:url(#SVGID_00000059999796033942105320000013671800523747742883_);fill:none;stroke:#F5F5F5;stroke-width:2.375;}
	.st16{fill:#384EA0;}
	.st17{clip-path:url(#SVGID_00000100349674680043017680000012688669740029886597_);fill:none;stroke:#F5F5F5;stroke-width:2.638;}
	.st18{clip-path:url(#SVGID_00000047775285271547370680000013461681909625759389_);fill:none;stroke:#F5F5F5;stroke-width:2.638;}
	.st19{fill:none;stroke:#384EA0;stroke-width:3.298;}
	.st20{clip-path:url(#SVGID_00000008122933173033311950000004754905553368256179_);fill:none;stroke:#F5F5F5;stroke-width:2.638;}
	.st21{clip-path:url(#SVGID_00000008122933173033311950000004754905553368256179_);fill:none;stroke:#384EA0;stroke-width:2.968;}
	.st22{fill:#F5F5F5;}
	.st23{clip-path:url(#SVGID_00000178888363651109367670000013594856852684847752_);fill:none;stroke:#F5F5F5;stroke-width:2.852;}
	.st24{clip-path:url(#SVGID_00000168797811148825474040000002448366199635092382_);fill:none;stroke:#F5F5F5;stroke-width:2.852;}
</style>
<g>
	<g>
		<defs>
			<rect id="SVGID_1_" x="0" width="73.31" height="66.04"/>
		</defs>
		<clipPath id="SVGID_00000134224548313588550180000007050709249714305927_">
			<use xlink:href="#SVGID_1_"  style="overflow:visible;"/>
		</clipPath>
		<path style="clip-path:url(#SVGID_00000134224548313588550180000007050709249714305927_);fill:#384EA0;" d="M14.28,28.22
			c4.44,0,8.04-3.6,8.04-8.04c0-4.44-3.6-8.04-8.04-8.04s-8.04,3.6-8.04,8.04C6.24,24.62,9.84,28.22,14.28,28.22"/>
		<path style="clip-path:url(#SVGID_00000134224548313588550180000007050709249714305927_);fill:#F5F5F5;" d="M14.28,28.22
			c4.44,0,8.04-3.6,8.04-8.04c0-4.44-3.6-8.04-8.04-8.04s-8.04,3.6-8.04,8.04C6.24,24.62,9.84,28.22,14.28,28.22z"/>
		<path style="clip-path:url(#SVGID_00000134224548313588550180000007050709249714305927_);fill:#384EA0;" d="M58.82,28.22
			c4.44,0,8.04-3.6,8.04-8.04c0-4.44-3.6-8.04-8.04-8.04s-8.04,3.6-8.04,8.04C50.77,24.62,54.37,28.22,58.82,28.22"/>
		<path style="clip-path:url(#SVGID_00000134224548313588550180000007050709249714305927_);fill:#F5F5F5;" d="M58.82,28.22
			c4.44,0,8.04-3.6,8.04-8.04c0-4.44-3.6-8.04-8.04-8.04s-8.04,3.6-8.04,8.04C50.77,24.62,54.37,28.22,58.82,28.22z"/>
		
			<path style="clip-path:url(#SVGID_00000134224548313588550180000007050709249714305927_);fill:#F5F5F5;stroke:#384EA0;stroke-width:2;" d="
			M3.73,58.62h21.54c0-0.05-0.21-18.34-0.22-18.39c0-0.1,0-0.21-0.01-0.31c-0.24-5.73-4.97-10.3-10.76-10.3
			c-5.93,0-10.74,4.79-10.77,10.71C3.51,40.35,3.73,58.6,3.73,58.62"/>
		<path style="clip-path:url(#SVGID_00000134224548313588550180000007050709249714305927_);fill:#384EA0;" d="M48.26,58.62H69.8
			c0-0.05-0.21-18.34-0.22-18.39c0-0.1,0-0.21-0.01-0.31c-0.24-5.73-4.97-10.3-10.76-10.3c-5.93,0-10.74,4.79-10.77,10.71
			C48.05,40.35,48.26,58.6,48.26,58.62"/>
		
			<path style="clip-path:url(#SVGID_00000134224548313588550180000007050709249714305927_);fill:#F5F5F5;stroke:#384EA0;stroke-width:2;" d="
			M48.26,58.62H69.8c0-0.05-0.21-18.34-0.22-18.39c0-0.1,0-0.21-0.01-0.31c-0.24-5.73-4.97-10.3-10.76-10.3
			c-5.93,0-10.74,4.79-10.77,10.71C48.05,40.35,48.26,58.6,48.26,58.62z"/>
		<path style="clip-path:url(#SVGID_00000134224548313588550180000007050709249714305927_);fill:#384EA0;" d="M36.71,23.26
			c5.74,0,10.38-4.65,10.38-10.38S42.44,2.5,36.71,2.5S26.33,7.15,26.33,12.88S30.97,23.26,36.71,23.26"/>
		
			<circle style="clip-path:url(#SVGID_00000134224548313588550180000007050709249714305927_);fill:#F5F5F5;" cx="36.71" cy="12.88" r="10.38"/>
		
			<path style="clip-path:url(#SVGID_00000134224548313588550180000007050709249714305927_);fill:#F5F5F5;stroke:#384EA0;stroke-width:2;" d="
			M23.08,62.51h27.8c0-0.07-0.28-23.67-0.28-23.74c0-0.13-0.01-0.27-0.01-0.4c-0.32-7.4-6.41-13.3-13.89-13.3
			c-7.65,0-13.86,6.18-13.9,13.83C22.81,38.92,23.08,62.48,23.08,62.51"/>
	</g>
</g>
</svg>
